# xmcd
#
# Track frame offsets:
#	150
#	13802
#	25170
#	38497
#	51412
#	62650
#	74947
#	86277
#	100442
#	113852
#	126117
#	137320
#	149570
#	162925
#	174827
#	188167
#	203405
#	215782
#	229755
#	243320
#	256340
#	269982
#	283490
#	296405
#	308765
#	321072
#	331235
#	342385
#
# Disc length: 4714 seconds
#
# Revision: 4
# Processed by: cddbd v1.5.2PL0 Copyright (c) Steve Scherf et al.
# Submitted via: EasyCDDAExtractor 12.0.0.1
#
DISCID=af12681c
DTITLE=Wilf "Montana Slim" Carter - Montana Slim: A Prairie Canadian)  Legend 
DTITLE=Disc 02
DYEAR=1993
DGENRE=Country
TTITLE0=There's A Love Knot In My Lariet
TTITLE1=It's Later Than You Think
TTITLE2=Too Many Blues
TTITLE3=Singing On Borrowed Time
TTITLE4=Just An Old Forgotten Letter
TTITLE5=She Lost Her Cowboy Pal
TTITLE6=Ol' Lonely
TTITLE7=If We Can't Be Sweethearts, Why Can't We Be Friends
TTITLE8=Don't Cry Over Me
TTITLE9=Sharing Your Love With Somebody New
TTITLE10=Don't Wait 'Till Judgement Day (To Cast Your Sins Away)
TTITLE11=Cowboy Days Ain't Ramblin' Days No More
TTITLE12='Neath A Blanket Of Stars
TTITLE13=I Never Knew That I Could Be So Blue
TTITLE14=It's Just A Wild Rose I'm Sending
TTITLE15=Where The Sleepy Rio's Flowing
TTITLE16=You'll Be Sorry You Turned Me Down
TTITLE17=Dreamy Lullaby Yodel
TTITLE18=It's Hard To Forget You
TTITLE19=The Tramp's Mother
TTITLE20=Take Away Those Blues Around My Heart
TTITLE21=The Midnight Train
TTITLE22=I'm Gonna Tear Down The Mailbox
TTITLE23=It Can't Be Done
TTITLE24=All I Need Is More Lovin'
TTITLE25=(There's A) Bluebird On Your Windowsill
TTITLE26=When The Iceworms Nest Again
TTITLE27=Shackles And Chains
EXTD=titles include release year
EXTT0=
EXTT1=
EXTT2=
EXTT3=
EXTT4=
EXTT5=
EXTT6=
EXTT7=
EXTT8=
EXTT9=
EXTT10=
EXTT11=
EXTT12=
EXTT13=
EXTT14=
EXTT15=
EXTT16=
EXTT17=
EXTT18=
EXTT19=
EXTT20=
EXTT21=
EXTT22=
EXTT23=
EXTT24=
EXTT25=
EXTT26=
EXTT27=
PLAYORDER=
